<?xml version="1.0" standalone="no"?>
<!DOCTYPE svg PUBLIC "-//W3C//DTD SVG 20010904//EN"
 "http://www.w3.org/TR/2001/REC-SVG-20010904/DTD/svg10.dtd">
<svg version="1.0" xmlns="http://www.w3.org/2000/svg"
 width="237.000000pt" height="237.000000pt" viewBox="0 0 237.000000 237.000000"
 preserveAspectRatio="xMidYMid meet">

<g transform="translate(0.000000,237.000000) scale(0.100000,-0.100000)"
fill="#000000" stroke="none">
<path d="M1176 2242 c-3 -5 1 -9 9 -9 8 0 12 4 9 9 -3 4 -7 8 -9 8 -2 0 -6 -4
-9 -8z"/>
<path d="M1053 2159 c-24 -17 -43 -32 -43 -35 0 -3 20 9 45 26 25 17 45 33 45
35 0 7 -2 6 -47 -26z"/>
<path d="M1270 2186 c0 -2 14 -14 30 -26 17 -12 30 -19 30 -16 0 2 -13 14 -30
26 -16 12 -30 19 -30 16z"/>
<path d="M670 1802 c-278 -191 -520 -357 -537 -370 l-32 -23 93 -272 c52 -150
144 -419 206 -599 l113 -328 672 0 672 0 201 588 c111 323 203 593 204 601 3
13 -1055 751 -1077 751 -5 0 -237 -157 -515 -348z m608 -32 l57 -1 -25 -19
c-14 -10 -34 -25 -44 -33 -18 -13 -18 -16 -3 -62 10 -27 15 -50 13 -52 -2 -2
-24 10 -49 28 l-46 32 -42 -31 c-23 -18 -45 -30 -47 -27 -2 2 3 25 12 52 13
37 14 49 4 54 -7 4 -28 19 -47 33 l-33 25 57 3 c58 3 58 3 72 43 7 22 16 47
19 55 4 9 14 -7 26 -42 l20 -58 56 0z m-370 -68 c2 -12 8 -22 13 -22 13 0 11
-34 -3 -49 -10 -10 -6 -10 15 1 16 8 34 25 40 39 12 23 57 40 57 21 0 -5 9
-12 20 -15 20 -5 29 -47 10 -47 -5 0 -10 -6 -10 -14 0 -24 -30 -27 -57 -7 -26
21 -40 19 -106 -16 l-32 -18 30 -3 c18 -2 33 2 41 12 13 18 54 22 54 5 0 -7 7
-17 17 -24 15 -11 15 -14 -3 -38 -24 -33 -44 -34 -73 -3 -28 30 -67 38 -106
21 -37 -15 -69 -50 -60 -64 3 -6 0 -11 -8 -11 -15 0 -59 -44 -76 -77 -6 -13
-8 -23 -3 -23 13 0 39 32 46 57 9 30 31 35 66 15 36 -20 37 -29 7 -65 -21 -26
-24 -27 -55 -15 -27 11 -37 10 -60 -2 -27 -15 -70 -86 -58 -97 11 -12 36 20
36 48 0 35 8 40 53 32 34 -5 60 -34 38 -41 -6 -2 -8 -8 -5 -13 12 -20 -18 -40
-51 -33 -57 10 -86 -16 -99 -90 -7 -35 -6 -38 8 -27 8 7 16 29 18 49 3 36 4
37 43 37 39 0 40 -1 40 -35 0 -33 -2 -35 -35 -38 -52 -5 -80 -36 -80 -89 0
-24 5 -43 10 -43 11 0 13 8 14 59 1 30 5 36 35 43 45 12 61 4 59 -29 -2 -37
-17 -55 -39 -48 -12 4 -28 -3 -45 -20 -24 -24 -26 -32 -21 -76 8 -61 16 -78
29 -54 7 12 5 27 -8 52 l-19 34 25 19 c37 29 63 25 79 -10 16 -37 9 -60 -18
-60 -29 0 -55 -44 -48 -79 9 -42 51 -110 55 -88 2 9 -6 29 -17 43 -26 34 -27
54 -1 54 11 0 20 6 20 14 0 8 7 17 16 20 19 7 44 -10 44 -29 0 -8 5 -15 11
-17 18 -6 1 -44 -25 -56 -38 -17 -43 -49 -11 -82 17 -17 23 -30 16 -34 -6 -4
-24 8 -41 27 -36 42 -72 50 -123 30 -34 -14 -40 -14 -53 -1 -8 8 -17 31 -21
51 -5 30 -2 38 13 43 11 3 29 11 41 16 26 13 53 -4 53 -33 0 -19 29 -54 37
-45 3 3 -7 26 -21 50 -29 50 -46 57 -116 54 l-45 -3 -3 48 c-3 38 0 47 13 47
9 0 23 7 31 15 22 22 54 2 54 -33 0 -16 7 -37 15 -48 14 -18 15 -16 9 21 -15
95 -49 134 -99 115 -37 -14 -45 -6 -45 46 0 48 -6 44 78 48 13 1 18 -9 22 -48
3 -30 11 -51 19 -54 11 -4 13 6 8 52 -7 73 -28 106 -66 106 -32 0 -57 23 -45
41 4 7 7 24 8 38 1 24 4 26 41 24 22 -2 46 -5 53 -8 15 -6 16 -47 1 -62 -7 -7
-9 -23 -5 -38 9 -36 14 -29 26 34 12 62 -5 107 -44 117 -33 8 -39 28 -18 64
21 37 29 40 70 23 35 -14 40 -36 17 -67 -14 -19 -22 -76 -8 -63 3 4 14 28 23
54 19 57 12 108 -19 129 -27 19 -26 30 2 60 27 29 51 30 77 4 26 -26 25 -38
-5 -62 -14 -11 -25 -29 -25 -41 1 -19 6 -16 40 22 45 49 52 87 20 116 -25 22
-26 61 -2 69 9 3 25 11 35 18 15 11 21 9 37 -12 27 -35 25 -55 -10 -80 -16
-12 -30 -28 -30 -36 0 -10 16 -2 45 23 49 40 58 72 29 104 -19 21 -12 47 13
55 10 3 25 9 33 14 24 14 45 7 48 -18z m527 -8 c25 -23 27 -24 22 -5 -3 12 -2
21 3 21 15 0 41 -52 38 -77 -2 -15 2 -28 8 -30 7 -2 9 11 4 42 -8 51 2 58 24
18 13 -23 15 -25 16 -8 0 18 1 18 17 2 11 -11 18 -34 18 -62 2 -64 15 -69 15
-5 0 47 2 51 16 39 13 -10 15 -24 10 -66 -3 -29 -2 -54 3 -58 6 -3 9 5 9 17
-1 13 -1 39 0 58 3 33 3 34 17 16 17 -23 20 -77 5 -92 -11 -11 -4 -44 9 -44 3
0 7 21 8 46 3 73 21 76 30 5 6 -42 23 -47 23 -8 0 18 2 19 10 7 15 -23 12 -72
-6 -91 -11 -12 -14 -24 -8 -36 7 -16 8 -15 11 7 2 14 12 36 23 50 l18 25 8
-29 c5 -20 1 -35 -15 -56 -11 -16 -21 -37 -20 -47 0 -13 2 -14 6 -4 3 8 16 30
29 49 l24 35 0 -33 c0 -21 -8 -43 -21 -56 -12 -12 -19 -28 -17 -34 2 -7 15 4
28 24 30 44 40 45 40 6 0 -20 -8 -35 -25 -46 -15 -10 -25 -25 -24 -38 1 -19 2
-19 6 -2 5 19 41 55 56 56 19 1 4 -45 -23 -70 -16 -15 -30 -34 -30 -42 1 -9 3
-8 10 3 5 9 21 24 35 33 24 16 25 16 25 -9 0 -17 -9 -29 -30 -40 -17 -9 -30
-24 -30 -34 0 -16 4 -15 31 10 35 32 49 36 49 14 0 -20 -45 -65 -65 -65 -9 0
-15 -9 -15 -22 0 -19 2 -20 13 -7 6 9 24 23 40 32 26 17 27 17 27 -2 0 -24
-24 -49 -55 -57 -13 -3 -25 -15 -28 -26 -5 -18 -4 -18 11 -5 25 23 72 39 72
25 0 -22 -33 -48 -60 -48 -19 0 -29 -6 -33 -20 -6 -23 1 -26 17 -6 6 7 26 16
44 20 30 5 32 4 22 -14 -13 -23 -41 -40 -69 -40 -11 0 -25 -9 -31 -20 -10 -19
-9 -19 22 -3 64 32 70 34 74 30 3 -2 -7 -19 -21 -36 -20 -24 -35 -31 -61 -31
-19 0 -34 -4 -34 -9 0 -9 69 1 90 14 29 18 2 -21 -31 -44 -27 -19 -29 -23 -11
-18 29 7 24 -13 -6 -29 -32 -16 -37 -24 -13 -17 34 9 25 -16 -11 -31 -22 -10
-40 -11 -57 -5 -13 6 -28 6 -32 2 -8 -8 5 -11 64 -13 34 -2 26 -17 -19 -36
-25 -11 -40 -12 -54 -4 -10 6 -25 9 -32 8 -6 -2 -12 3 -13 10 0 7 -7 17 -15
22 -21 13 -19 82 3 104 9 10 17 23 17 29 0 7 4 6 10 -3 7 -11 10 -6 10 20 0
19 7 48 15 64 8 15 15 35 15 43 0 8 4 12 8 9 5 -3 6 9 4 26 -3 20 -1 29 6 24
7 -4 8 3 2 24 -5 19 -5 30 1 30 6 0 6 7 -1 19 -16 31 -12 36 12 15 17 -14 16
-11 -5 14 -33 41 -36 62 -4 36 12 -10 9 -4 -7 14 -16 17 -26 35 -23 39 4 3 0
17 -8 30 -9 13 -12 23 -9 23 4 0 1 8 -7 18 -29 36 -40 62 -27 62 7 1 0 8 -17
17 -16 9 -25 18 -18 20 13 5 -12 32 -77 83 -42 34 -43 35 -19 41 20 6 18 7
-13 8 -39 1 -52 16 -20 24 9 3 -2 5 -25 6 -43 1 -58 16 -25 24 9 3 -3 5 -28 6
-31 1 -41 4 -31 10 12 8 9 11 -14 17 l-29 7 25 9 24 10 -34 17 -34 18 26 7
c28 7 71 -7 102 -32 19 -16 19 -16 4 3 -21 27 -40 75 -30 75 4 0 21 -12 36
-26z m-544 -173 l23 -19 -24 -26 c-30 -30 -32 -31 -80 -10 l-37 17 31 28 c37
34 56 36 87 10z m220 -223 l64 -33 3 -143 3 -143 -46 31 c-62 42 -145 80 -175
79 -19 -1 -16 -3 13 -10 47 -11 109 -42 169 -85 43 -30 47 -31 61 -16 27 30
120 81 177 97 45 13 48 15 16 11 -46 -6 -134 -47 -176 -83 l-30 -25 0 145 0
146 57 27 c34 17 73 28 101 28 l44 1 34 -95 c49 -137 48 -130 27 -131 -17 -1
-17 -2 0 -6 12 -3 17 -12 15 -26 -2 -17 -16 -25 -71 -39 -65 -17 -137 -57
-166 -92 -23 -27 -76 -20 -113 15 -41 39 -119 76 -175 85 -37 5 -43 10 -43 30
0 13 6 24 13 24 9 0 8 3 -2 9 -11 7 -6 29 25 120 l39 111 36 0 c21 0 63 -14
100 -32z m-64 -343 l138 -74 143 75 c79 41 147 72 152 69 25 -16 1 -35 -115
-93 -69 -34 -125 -65 -125 -69 0 -5 32 -26 70 -47 74 -42 75 -43 61 -65 -7
-11 -27 -4 -100 35 l-92 49 -89 -47 c-76 -40 -90 -45 -101 -32 -14 17 -20 12
69 60 39 21 72 41 72 44 0 3 -56 36 -125 73 -71 39 -125 74 -125 83 0 25 28
15 167 -61z m-172 -271 c128 -92 290 -125 443 -89 72 17 127 43 193 91 26 19
51 34 55 34 5 -1 40 -29 78 -64 l69 -63 -64 -45 c-98 -69 -146 -94 -245 -127
-222 -75 -431 -41 -648 103 -47 31 -88 61 -91 66 -5 8 138 130 153 130 4 0 30
-16 57 -36z m-260 -20 c33 -8 63 -18 68 -23 4 -4 -6 -20 -23 -36 -37 -36 -37
-44 0 -80 33 -32 37 -47 15 -65 -11 -9 -26 -7 -72 15 -32 14 -79 29 -105 32
-27 3 -48 9 -48 14 0 11 51 49 66 49 8 0 14 5 14 11 0 14 -70 79 -84 79 -6 0
-4 5 4 10 22 15 98 12 165 -6z m1310 6 c3 -5 2 -10 -4 -10 -14 0 -81 -65 -81
-79 0 -6 6 -11 14 -11 16 0 66 -38 66 -51 0 -5 -17 -9 -37 -9 -21 0 -61 -11
-90 -24 -67 -32 -93 -35 -106 -14 -9 13 -4 24 21 52 18 20 32 40 32 43 0 4
-14 21 -31 39 -30 31 -31 32 -11 43 51 27 214 42 227 21z"/>
<path d="M850 1605 c-16 -19 -3 -19 30 0 24 13 24 14 4 15 -12 0 -27 -7 -34
-15z"/>
<path d="M1460 1641 c0 -6 4 -13 10 -16 6 -3 7 1 4 9 -7 18 -14 21 -14 7z"/>
<path d="M1435 1610 c3 -5 11 -10 16 -10 6 0 7 5 4 10 -3 6 -11 10 -16 10 -6
0 -7 -4 -4 -10z"/>
<path d="M1465 1590 c-3 -5 3 -10 15 -10 12 0 18 5 15 10 -3 6 -10 10 -15 10
-5 0 -12 -4 -15 -10z"/>
<path d="M1540 1591 c0 -6 4 -13 10 -16 6 -3 7 1 4 9 -7 18 -14 21 -14 7z"/>
<path d="M1495 1560 c-4 -6 7 -10 27 -10 25 0 29 3 18 10 -19 13 -37 13 -45 0z"/>
<path d="M1555 1530 c-3 -5 1 -10 10 -10 9 0 13 5 10 10 -3 6 -8 10 -10 10 -2
0 -7 -4 -10 -10z"/>
<path d="M1585 1500 c-4 -6 3 -10 14 -10 25 0 27 6 6 13 -8 4 -17 2 -20 -3z"/>
<path d="M1612 1471 c-10 -6 -7 -10 12 -13 21 -4 24 -3 15 8 -13 16 -11 16
-27 5z"/>
<path d="M1694 1449 c-3 -6 -2 -15 3 -20 5 -5 9 -1 10 11 2 22 -2 25 -13 9z"/>
<path d="M1640 1426 c0 -2 9 -6 20 -9 11 -3 18 -1 14 4 -5 9 -34 13 -34 5z"/>
<path d="M1671 1387 c2 -1 12 -9 22 -16 15 -12 17 -12 11 3 -3 9 -13 16 -22
16 -8 0 -13 -1 -11 -3z"/>
<path d="M1706 1326 c21 -15 30 -14 19 3 -3 6 -14 11 -23 11 -13 0 -13 -2 4
-14z"/>
<path d="M1730 1291 c0 -5 5 -13 10 -16 6 -3 10 -2 10 4 0 5 -4 13 -10 16 -5
3 -10 2 -10 -4z"/>
<path d="M1741 1231 c13 -11 26 -17 29 -14 6 6 -30 33 -43 33 -5 0 1 -9 14
-19z"/>
<path d="M1766 1175 c4 -8 8 -15 10 -15 2 0 4 7 4 15 0 8 -4 15 -10 15 -5 0
-7 -7 -4 -15z"/>
<path d="M1760 1136 c0 -2 7 -9 15 -16 12 -10 15 -10 15 4 0 9 -7 16 -15 16
-8 0 -15 -2 -15 -4z"/>
<path d="M1767 1076 c10 -13 20 -20 21 -15 7 17 -7 39 -23 39 -14 0 -14 -3 2
-24z"/>
<path d="M1720 1069 c0 -3 16 -19 35 -38 25 -23 35 -28 35 -16 0 8 -8 18 -17
22 -10 3 -26 13 -35 21 -10 8 -18 13 -18 11z"/>
<path d="M1744 981 c9 -10 16 -23 16 -30 0 -7 5 -9 10 -6 18 11 11 30 -16 42
-25 12 -26 11 -10 -6z"/>
<path d="M1740 910 c0 -11 4 -20 9 -20 11 0 22 26 14 34 -12 12 -23 5 -23 -14z"/>
<path d="M1727 870 c3 -11 9 -17 15 -14 5 3 4 12 -3 20 -16 19 -18 18 -12 -6z"/>
<path d="M1707 819 c3 -10 9 -16 14 -13 13 8 11 21 -5 27 -10 4 -12 0 -9 -14z"/>
<path d="M1741 806 c-9 -10 -6 -12 14 -8 29 5 31 8 11 15 -8 3 -19 0 -25 -7z"/>
<path d="M1677 779 c3 -10 9 -16 14 -13 13 8 11 21 -5 27 -10 4 -12 0 -9 -14z"/>
<path d="M1716 761 c-4 -5 3 -7 14 -4 23 6 26 13 6 13 -8 0 -17 -4 -20 -9z"/>
<path d="M1650 734 c0 -14 3 -14 15 -4 8 7 15 14 15 16 0 2 -7 4 -15 4 -8 0
-15 -7 -15 -16z"/>
<path d="M1290 1250 c-8 -5 -10 -10 -5 -10 6 0 17 5 25 10 8 5 11 10 5 10 -5
0 -17 -5 -25 -10z"/>
<path d="M1295 1210 c-3 -6 1 -7 9 -4 18 7 21 14 7 14 -6 0 -13 -4 -16 -10z"/>
<path d="M1060 1170 c8 -5 20 -10 25 -10 6 0 3 5 -5 10 -8 5 -19 10 -25 10 -5
0 -3 -5 5 -10z"/>
<path d="M766 641 c-26 -27 -34 -41 -26 -46 17 -10 88 61 74 75 -7 7 -22 -3
-48 -29z"/>
<path d="M1556 662 c-2 -4 10 -25 27 -46 23 -27 37 -35 50 -31 21 9 23 25 2
25 -8 0 -24 14 -37 30 -22 31 -33 36 -42 22z"/>
<path d="M800 620 c-31 -39 -34 -74 -3 -49 12 11 14 10 11 -6 -5 -31 16 -26
32 7 8 18 21 34 29 36 9 3 6 -9 -9 -37 -27 -46 -21 -64 11 -35 22 19 22 19 10
-3 -8 -15 -8 -24 0 -28 6 -4 11 -5 13 -4 46 63 55 118 13 82 -21 -17 -21 -17
-7 1 13 16 12 20 -5 33 -11 7 -28 12 -37 10 -10 -3 -15 0 -12 8 12 31 -17 22
-46 -15z"/>
<path d="M1511 631 c-11 -7 -8 -18 15 -56 22 -39 29 -45 38 -33 11 15 17 18
38 18 7 0 -6 18 -27 40 -42 43 -43 44 -64 31z"/>
<path d="M1461 588 c-6 -12 -10 -17 -10 -10 -1 14 -27 17 -35 3 -8 -12 37 -91
52 -91 6 0 12 4 12 8 0 4 -6 14 -12 22 -7 8 -3 6 10 -4 19 -16 22 -17 22 -3 0
11 6 13 22 9 22 -5 22 -5 -4 38 -31 53 -45 60 -57 28z"/>
<path d="M930 538 c-18 -39 -18 -44 -3 -55 19 -15 34 -8 27 11 -3 8 2 30 10
50 13 32 13 36 0 36 -8 0 -24 -19 -34 -42z"/>
<path d="M1364 564 c-15 -6 6 -96 24 -102 7 -2 12 2 12 8 0 7 8 9 20 5 26 -8
25 6 -2 55 -22 39 -30 44 -54 34z"/>
<path d="M982 515 c-21 -44 -18 -60 12 -49 9 3 16 1 16 -5 0 -6 4 -11 9 -11
11 0 32 90 25 102 -14 22 -42 5 -62 -37z m29 -18 c-10 -9 -11 -8 -5 6 3 10 9
15 12 12 3 -3 0 -11 -7 -18z"/>
<path d="M1073 543 c-15 -6 -17 -49 -3 -58 6 -3 9 -14 9 -23 -1 -15 -2 -15 -6
1 -6 23 -23 22 -23 -3 0 -16 7 -20 30 -20 24 0 30 4 30 22 0 12 -7 29 -16 39
-15 16 -14 17 5 12 12 -3 21 -1 21 5 0 15 -31 31 -47 25z"/>
<path d="M1292 541 c-18 -11 4 -101 24 -101 10 0 13 8 9 28 -5 26 -5 26 6 5 7
-13 16 -23 21 -23 12 0 10 38 -2 45 -6 4 -8 10 -5 15 17 27 -23 51 -53 31z"/>
<path d="M1237 533 c-9 -8 -9 -66 -1 -87 7 -18 39 -22 49 -6 3 6 -1 10 -9 10
-19 0 -21 26 -3 33 9 4 9 7 -1 15 -7 5 -10 16 -6 25 6 17 -15 24 -29 10z"/>
<path d="M1150 480 l0 -51 33 3 c31 3 32 5 32 48 0 43 -1 45 -32 48 l-33 3 0
-51z"/>
<path d="M1430 2076 c0 -2 14 -14 30 -26 17 -12 30 -19 30 -16 0 2 -13 14 -30
26 -16 12 -30 19 -30 16z"/>
<path d="M889 2043 c-13 -16 -12 -17 4 -4 9 7 17 15 17 17 0 8 -8 3 -21 -13z"/>
<path d="M729 1933 c-13 -16 -12 -17 4 -4 9 7 17 15 17 17 0 8 -8 3 -21 -13z"/>
<path d="M1620 1946 c0 -2 8 -10 18 -17 15 -13 16 -12 3 4 -13 16 -21 21 -21
13z"/>
<path d="M569 1823 c-13 -16 -12 -17 4 -4 9 7 17 15 17 17 0 8 -8 3 -21 -13z"/>
<path d="M1780 1836 c0 -2 8 -10 18 -17 15 -13 16 -12 3 4 -13 16 -21 21 -21
13z"/>
<path d="M395 1704 l-30 -26 33 22 c17 12 32 23 32 26 0 7 -4 5 -35 -22z"/>
<path d="M1940 1726 c0 -2 8 -10 18 -17 15 -13 16 -12 3 4 -13 16 -21 21 -21
13z"/>
<path d="M2100 1616 c0 -2 8 -10 18 -17 15 -13 16 -12 3 4 -13 16 -21 21 -21
13z"/>
<path d="M219 1583 c-13 -16 -12 -17 4 -4 9 7 17 15 17 17 0 8 -8 3 -21 -13z"/>
<path d="M450 128 c0 -5 331 -8 735 -8 404 0 735 3 735 8 0 4 -331 7 -735 7
-404 0 -735 -3 -735 -7z"/>
</g>
</svg>
